<?xml version="1.0" encoding="utf-8"?>
<!-- Generator: Adobe Illustrator 16.0.0, SVG Export Plug-In . SVG Version: 6.00 Build 0)  -->
<!DOCTYPE svg PUBLIC "-//W3C//DTD SVG 1.1//EN" "http://www.w3.org/Graphics/SVG/1.1/DTD/svg11.dtd">
<svg version="1.1" id="Calque_1" xmlns="http://www.w3.org/2000/svg" xmlns:xlink="http://www.w3.org/1999/xlink" x="0px" y="0px"
	 width="1431.525px" height="975.075px" viewBox="0 0 1431.525 975.075" enable-background="new 0 0 1431.525 975.075"
	 xml:space="preserve">
<g>
	<path fill="#51131F" d="M773.803,724.465v8.289c0,4.592-3.704,8.289-8.295,8.289h-99.496c-4.585,0-8.282-3.697-8.282-8.289v-8.289
		H301.201v16.578c0,0,0,24.878,24.873,24.878h779.378c24.872,0,24.872-24.878,24.872-24.878v-16.578H773.803z"/>
	<g>
		<path fill="#771C2C" d="M1013.746,693.408H417.779c-12.663,0-22.922-10.259-22.922-22.922V232.069
			c0-12.656,10.259-22.916,22.922-22.916h595.967c12.657,0,22.921,10.259,22.921,22.916v438.417
			C1036.667,683.149,1026.403,693.408,1013.746,693.408z M440.702,647.564h550.123V254.991H440.702V647.564z"/>
	</g>
</g>
</svg>
