<?xml version="1.0" encoding="utf-8"?>
<!-- Generator: Adobe Illustrator 16.0.0, SVG Export Plug-In . SVG Version: 6.00 Build 0)  -->
<!DOCTYPE svg PUBLIC "-//W3C//DTD SVG 1.1//EN" "http://www.w3.org/Graphics/SVG/1.1/DTD/svg11.dtd">
<svg version="1.1" id="Calque_1" xmlns="http://www.w3.org/2000/svg" xmlns:xlink="http://www.w3.org/1999/xlink" x="0px" y="0px"
	 width="1431.525px" height="975.075px" viewBox="0 0 1431.525 975.075" enable-background="new 0 0 1431.525 975.075"
	 xml:space="preserve">
<path fill="#7A1B2C" d="M641.597,610.611c-17.777,0-34.905-2.013-51.231-5.509l-74.499,74.499v-105.49
	c-40.125-27.032-65.603-66.671-65.603-110.985c0-81.45,85.663-147.488,191.333-147.488s191.331,66.038,191.331,147.488
	C832.928,544.577,747.271,610.611,641.597,610.611z"/>
<path fill="#5E1625" d="M795.969,361.253c25.835,15.721,50.43,61.988,50.445,98.473c0.019,81.669-73.274,147.35-177.201,161.764
	c13.206,19.827,61.785,31.067,97.424,31.067c17.777,0,34.902-2.02,51.235-5.513l74.491,74.495V616.054
	c40.137-27.028,65.612-66.675,65.612-110.985C957.975,434.704,881.484,375.976,795.969,361.253z"/>
<path fill="#FFFFFF" d="M662.703,459.687c0-11.658-9.443-21.098-21.105-21.098s-21.105,9.439-21.105,21.098
	s9.443,21.109,21.105,21.109S662.703,471.345,662.703,459.687"/>
<path fill="#FFFFFF" d="M747.125,459.687c0-11.658-9.44-21.098-21.11-21.098c-11.661,0-21.105,9.439-21.105,21.098
	s9.444,21.109,21.105,21.109C737.685,480.796,747.125,471.345,747.125,459.687"/>
<path fill="#FFFFFF" d="M578.281,459.687c0-11.658-9.443-21.098-21.105-21.098c-11.659,0-21.102,9.439-21.102,21.098
	s9.443,21.109,21.102,21.109C568.838,480.796,578.281,471.345,578.281,459.687"/>
</svg>
