<?xml version="1.0" encoding="utf-8"?>
<!-- Generator: Adobe Illustrator 16.0.0, SVG Export Plug-In . SVG Version: 6.00 Build 0)  -->
<!DOCTYPE svg PUBLIC "-//W3C//DTD SVG 1.1//EN" "http://www.w3.org/Graphics/SVG/1.1/DTD/svg11.dtd">
<svg version="1.1" id="Calque_1" xmlns="http://www.w3.org/2000/svg" xmlns:xlink="http://www.w3.org/1999/xlink" x="0px" y="0px"
	 width="2000px" height="1235px" viewBox="0 0 2000 1235" enable-background="new 0 0 2000 1235" xml:space="preserve">
<path fill="#5E1625" d="M854.355,616.696c-33.796,0-61.155,12.07-61.155,28.162v5.633c0,15.289,27.359,28.164,61.155,28.164
	c33.796,0,61.155-12.07,61.155-28.164v-5.633C915.51,629.571,888.151,616.696,854.355,616.696z"/>
<path fill="#5E1625" d="M854.355,692.335c-29.772,0-53.913-9.656-60.35-21.727c-0.805,1.609-1.609,4.023-1.609,5.633v5.633
	c0,15.289,27.359,28.164,61.155,28.164c33.796,0,61.155-12.07,61.155-28.164v-5.633c0-1.609-0.805-4.023-1.609-5.633
	C908.268,682.679,884.128,692.335,854.355,692.335z"/>
<path fill="#5E1625" d="M854.355,723.716c-29.772,0-53.913-9.654-60.35-21.725c-0.805,1.609-1.609,4.023-1.609,5.633v5.633
	c0,15.287,27.359,28.162,61.155,28.162c33.796,0,61.155-12.07,61.155-28.162v-5.633c0-1.609-0.805-4.023-1.609-5.633
	C908.268,714.062,884.128,723.716,854.355,723.716z"/>
<path fill="#5E1625" d="M854.355,755.903c-29.772,0-53.913-9.656-60.35-21.727c-0.805,1.609-1.609,4.023-1.609,5.633v5.633
	c0,15.289,27.359,28.164,61.155,28.164c33.796,0,61.155-12.07,61.155-28.164v-5.633c0-1.609-0.805-4.023-1.609-5.633
	C908.268,746.247,884.128,755.903,854.355,755.903z"/>
<path fill="#5E1625" d="M854.355,787.286c-29.772,0-53.913-9.656-60.35-21.727c-0.805,1.609-1.609,4.023-1.609,5.633v5.633
	c0,15.289,27.359,28.162,61.155,28.162c33.796,0,61.155-12.068,61.155-28.162v-5.633c0-1.609-0.805-4.023-1.609-5.633
	C908.268,777.63,884.128,787.286,854.355,787.286z"/>
<path fill="#5E1625" d="M1061.154,556.346v-5.633c0-15.289-27.358-28.163-61.154-28.163c-11.265,0-22.531,1.609-31.382,4.023
	l55.522,55.521C1045.866,577.267,1061.154,567.61,1061.154,556.346z"/>
<path fill="#5E1625" d="M1061.154,586.923v-5.633c0-1.609-0.805-4.023-1.608-5.633c-3.219,7.242-12.875,12.875-24.945,16.898
	l12.07,12.07C1056.327,600.603,1061.154,594.165,1061.154,586.923z"/>
<path fill="#5E1625" d="M1061.154,618.306v-5.633c0-1.609-0.805-4.023-1.608-5.633c-0.805,2.414-2.414,4.828-4.828,6.438
	l6.437,6.438C1061.154,619.11,1061.154,618.306,1061.154,618.306z"/>
<path fill="#5E1625" d="M938.845,618.306c0,9.656,10.461,17.703,25.75,22.529l-25.75-25.748V618.306z"/>
<path fill="#5E1625" d="M939.65,639.226c-0.805,1.609-1.609,4.023-1.609,5.633v6.438c0,15.289,27.359,28.164,61.155,28.164
	c0.805,0,1.609,0,2.414,0l-18.507-18.508C961.376,657.733,944.478,649.687,939.65,639.226z"/>
<path fill="#5E1625" d="M1000,692.335c-29.773,0-53.913-9.656-60.35-21.727c-0.805,1.609-1.609,4.023-1.609,5.633v5.633
	c0,15.289,27.359,28.164,61.155,28.164c10.461,0,20.922-1.609,29.773-3.219l-14.484-14.484
	C1010.461,692.335,1004.828,692.335,1000,692.335z"/>
<path fill="#5E1625" d="M1000,723.716c-29.773,0-53.913-9.654-60.35-21.725c-0.805,1.609-1.609,4.023-1.609,5.633v5.633
	c0,15.287,27.359,28.162,61.155,28.162c21.727,0,40.233-4.828,51.499-12.875l-11.266-11.264
	C1028.969,720.497,1015.289,723.716,1000,723.716z"/>
<path fill="#5E1625" d="M1000,755.903c-29.773,0-53.913-9.656-60.35-21.727c-0.805,1.609-1.609,4.023-1.609,5.633v5.633
	c0,15.289,27.359,28.164,61.155,28.164s61.154-12.07,61.154-28.164v-5.633c0-0.805,0-0.805,0-1.609l-2.413-2.414
	C1051.499,747.856,1028.164,755.903,1000,755.903z"/>
<path fill="#5E1625" d="M1000,787.286c-29.773,0-53.913-9.656-60.35-21.727c-0.805,1.609-1.609,4.023-1.609,5.633v5.633
	c0,15.289,27.359,28.162,61.155,28.162s61.154-12.068,61.154-28.162v-5.633c0-1.609-0.804-4.023-1.608-5.633
	C1053.913,777.63,1029.773,787.286,1000,787.286z"/>
<path fill="#5E1625" d="M1145.645,491.972c33.797,0,61.155-12.069,61.155-28.163v-6.438c0-15.288-27.358-28.163-61.155-28.163
	c-33.796,0-61.154,12.07-61.154,28.163v6.438C1084.49,479.098,1111.849,491.972,1145.645,491.972z"/>
<path fill="#5E1625" d="M1145.645,522.55c33.797,0,61.155-12.07,61.155-28.164v-5.633c0-1.609-0.805-4.022-1.609-5.632
	c-5.633,12.874-30.577,21.726-60.351,21.726c-29.772,0-53.912-9.656-60.35-21.726c-0.805,1.609-1.609,4.022-1.609,5.632v5.633
	C1084.49,510.479,1111.849,522.55,1145.645,522.55z"/>
<path fill="#5E1625" d="M1145.645,553.932c33.797,0,61.155-12.07,61.155-28.163v-5.633c0-1.609-0.805-4.023-1.609-5.633
	c-5.633,12.874-30.577,21.726-60.351,21.726c-29.772,0-53.912-9.655-60.35-21.726c-0.805,1.609-1.609,4.023-1.609,5.633v5.633
	C1084.49,541.057,1111.849,553.932,1145.645,553.932z"/>
<path fill="#5E1625" d="M1145.645,586.923c33.797,0,61.155-12.07,61.155-28.163v-5.633c0-1.609-0.805-4.023-1.609-5.633
	c-5.633,12.875-30.577,21.726-60.351,21.726c-29.772,0-53.912-9.655-60.35-21.726c-0.805,1.609-1.609,4.023-1.609,5.633v5.633
	C1084.49,574.048,1111.849,586.923,1145.645,586.923z"/>
<path fill="#5E1625" d="M1145.645,617.501c33.797,0,61.155-12.07,61.155-28.164v-5.633c0-1.609-0.805-4.023-1.609-5.633
	c-5.633,12.875-30.577,21.727-60.351,21.727c-29.772,0-53.912-9.656-60.35-21.727c-0.805,1.609-1.609,4.023-1.609,5.633v5.633
	C1084.49,605.431,1111.849,617.501,1145.645,617.501z"/>
<path fill="#5E1625" d="M1145.645,648.882c33.797,0,61.155-12.068,61.155-28.162v-5.633c0-1.609-0.805-4.023-1.609-5.633
	c-5.633,12.875-30.577,21.727-60.351,21.727c-29.772,0-53.912-9.656-60.35-21.727c-0.805,1.609-1.609,4.023-1.609,5.633v5.633
	C1084.49,636.009,1111.849,648.882,1145.645,648.882z"/>
<path fill="#5E1625" d="M1145.645,681.069c33.797,0,61.155-12.07,61.155-28.164v-5.633c0-1.609-0.805-4.023-1.609-5.633
	c-5.633,12.875-30.577,21.727-60.351,21.727c-29.772,0-53.912-9.656-60.35-21.727c0,0.805,0,0.805-0.805,1.609l36.21,36.211
	C1128.747,680.265,1136.794,681.069,1145.645,681.069z"/>
<path fill="#5E1625" d="M1206.8,684.288v-5.633c0-1.609-0.805-4.023-1.609-5.633c-5.633,12.875-30.577,21.727-60.351,21.727
	c-3.219,0-6.437,0-8.851,0l17.702,17.703C1184.269,710.038,1206.8,698.772,1206.8,684.288z"/>
<path fill="#5E1625" d="M1206.8,713.257v-5.633c0-1.609-0.805-4.023-1.609-5.633c-4.828,9.656-20.922,17.701-41.843,20.92
	l14.484,14.484C1195.534,731.763,1206.8,722.911,1206.8,713.257z"/>
<path fill="#5E1625" d="M1206.8,745.442v-5.633c0-1.609-0.805-4.023-1.609-5.633c-2.414,5.633-8.047,9.656-16.094,13.68
	l10.461,10.461C1204.386,754.294,1206.8,750.271,1206.8,745.442z"/>
<path fill="#5E1625" d="M1085.295,764.755c-0.805,1.609-1.609,4.023-1.609,5.633v5.633c0,12.07,17.702,22.531,41.843,26.553
	l-24.141-24.139C1094.146,775.216,1087.709,770.388,1085.295,764.755z"/>
<path fill="#5E1625" d="M1058.741,735.786l2.413,2.414c0-1.609-0.805-2.414-0.805-4.023
	C1059.546,734.177,1059.546,734.981,1058.741,735.786z"/>
<path fill="#7A1B2C" d="M1000,973.932c-95.39,0-184.949-37.025-252.177-104.255c-67.229-67.229-104.254-156.786-104.254-252.176
	c0-95.391,37.025-184.949,104.254-252.178S904.61,261.069,1000,261.069c95.391,0,184.948,37.025,252.177,104.254
	c67.229,67.229,104.255,156.787,104.255,252.178c0,95.39-37.025,184.948-104.255,252.177
	C1184.949,936.906,1095.391,973.932,1000,973.932z M759.073,417.531c-22.857,27.429-40.678,58.28-52.967,91.695
	c-12.712,34.563-19.158,70.992-19.158,108.274c0,83.63,32.56,162.247,91.683,221.37c59.124,59.122,137.741,91.682,221.37,91.682
	c37.281,0,73.71-6.445,108.273-19.157c33.416-12.291,64.267-30.111,91.695-52.967l4.769-3.975L763.046,412.762L759.073,417.531z
	 M1235.305,823.808l3.981-4.691c47.568-56.062,73.766-127.664,73.766-201.615c0-83.718-32.594-162.478-91.778-221.77
	c-59.278-59.384-138.147-92.088-222.078-92.088c-74.162,0-143.868,25.499-201.584,73.739l-4.756,3.976L1235.305,823.808z"/>
<path fill="#7A1B2C" d="M1000,971.097c-94.633,0-183.479-36.729-250.173-103.424c-66.694-66.693-103.424-155.54-103.424-250.172
	c0-94.633,36.73-183.48,103.424-250.174S905.367,263.903,1000,263.903s183.479,36.73,250.173,103.424
	c66.694,66.694,103.424,155.541,103.424,250.174c0,94.632-36.729,183.479-103.424,250.172
	C1183.479,934.367,1094.633,971.097,1000,971.097z M756.895,415.717c-23.065,27.678-41.048,58.81-53.45,92.531
	c-12.828,34.879-19.332,71.637-19.332,109.253c0,84.388,32.855,163.716,92.513,223.374c59.658,59.657,138.987,92.513,223.375,92.513
	c37.615,0,74.373-6.504,109.252-19.332c33.721-12.402,64.853-30.385,92.531-53.449l7.153-5.962L762.856,408.563L756.895,415.717z
	 M999.195,300.809c-74.834,0-145.169,25.727-203.402,74.399l-7.134,5.963l446.816,446.816l5.972-7.037
	c48.003-56.574,74.439-128.827,74.439-203.449c0-84.475-32.889-163.945-92.607-223.772
	C1163.466,333.809,1083.885,300.809,999.195,300.809z"/>
</svg>
