<?xml version="1.0" encoding="utf-8"?>
<!-- Generator: Adobe Illustrator 16.0.0, SVG Export Plug-In . SVG Version: 6.00 Build 0)  -->
<!DOCTYPE svg PUBLIC "-//W3C//DTD SVG 1.1//EN" "http://www.w3.org/Graphics/SVG/1.1/DTD/svg11.dtd">
<svg version="1.1" id="Calque_1" xmlns="http://www.w3.org/2000/svg" xmlns:xlink="http://www.w3.org/1999/xlink" x="0px" y="0px"
	 width="200px" height="50px" viewBox="0 0 200 50" enable-background="new 0 0 200 50" xml:space="preserve">
<g>
	<path fill="#FFFFFF" d="M8.587,9.905h1.757v28.312h9.552v1.67H8.587V9.905z"/>
	<path fill="#FFFFFF" d="M31.847,39.417c-0.472,0.257-0.985,0.471-1.542,0.643c-0.557,0.171-1.114,0.257-1.713,0.257
		c-0.813,0-1.585-0.129-2.27-0.385c-0.686-0.257-1.285-0.686-1.799-1.285c-0.514-0.557-0.899-1.286-1.2-2.185
		c-0.3-0.9-0.428-2.014-0.428-3.341c0-2.527,0.6-4.37,1.756-5.525c1.157-1.157,2.656-1.713,4.456-1.713
		c0.985,0,1.884,0.128,2.698,0.386c0.814,0.256,1.499,0.599,2.056,0.985v-4.069c0-1.757-0.3-2.956-0.899-3.641
		c-0.599-0.686-1.542-1.028-2.784-1.028c-0.599,0-1.157,0.085-1.67,0.213c-0.514,0.129-0.985,0.3-1.414,0.515
		c-0.471,0.214-0.857,0.428-1.199,0.643c-0.344,0.214-0.6,0.385-0.815,0.514l-0.813-1.328c0.172-0.129,0.428-0.344,0.771-0.6
		c0.342-0.257,0.771-0.514,1.285-0.729c0.514-0.214,1.07-0.428,1.713-0.599c0.643-0.172,1.328-0.257,2.056-0.257
		c1.884,0,3.298,0.428,4.197,1.328s1.371,2.484,1.371,4.754v16.876h-1.713v-2.142c-0.214,0.257-0.514,0.557-0.856,0.856
		c-0.343,0.3-0.728,0.6-1.157,0.857H31.847z M24.693,33.078c0,1.927,0.385,3.384,1.157,4.325c0.771,0.942,1.842,1.414,3.256,1.414
		c0.985,0,1.884-0.3,2.698-0.9c0.814-0.599,1.499-1.285,2.056-2.013v-7.11c-0.642-0.428-1.328-0.771-2.099-1.028
		c-0.771-0.257-1.628-0.386-2.57-0.386c-1.413,0-2.527,0.471-3.341,1.414c-0.813,0.942-1.2,2.356-1.2,4.284H24.693z"/>
	<path fill="#FFFFFF" d="M49.668,17.357h1.713v2.398c0.429-0.813,1.028-1.499,1.799-2.013c0.771-0.514,1.713-0.771,2.784-0.771
		c0.643,0,1.157,0.043,1.542,0.129c0.385,0.086,0.771,0.214,1.113,0.342l-0.471,1.799c-0.3-0.129-0.642-0.257-1.07-0.386
		c-0.428-0.129-0.856-0.171-1.285-0.171c-0.814,0-1.628,0.257-2.442,0.729c-0.814,0.471-1.456,1.371-1.928,2.656v17.818h-1.713
		L49.668,17.357z"/>
	<path fill="#FFFFFF" d="M72.114,39.031C71.6,39.417,71,39.716,70.358,39.974c-0.643,0.256-1.37,0.385-2.185,0.385
		c-0.985,0-1.885-0.257-2.699-0.771c-0.813-0.514-1.542-1.286-2.141-2.27c-0.601-0.985-1.071-2.185-1.414-3.641
		c-0.343-1.457-0.514-3.127-0.514-5.011c0-1.842,0.171-3.47,0.514-4.927c0.343-1.456,0.813-2.698,1.414-3.684
		c0.599-0.984,1.328-1.756,2.185-2.313c0.856-0.556,1.798-0.813,2.827-0.813c1.07,0,2.013,0.257,2.827,0.813
		c0.813,0.557,1.5,1.329,2.055,2.313c0.557,0.985,0.986,2.185,1.243,3.599c0.256,1.413,0.385,2.998,0.385,4.711v0.813H63.204v0.128
		c0.086,2.87,0.557,5.14,1.414,6.854c0.856,1.713,2.1,2.57,3.684,2.57c0.643,0,1.243-0.129,1.757-0.343
		c0.513-0.214,0.984-0.515,1.37-0.857c0.387-0.3,0.729-0.642,1.028-0.985c0.301-0.343,0.515-0.642,0.687-0.856l1.07,1.114
		c-0.214,0.299-0.471,0.642-0.814,1.027c-0.342,0.386-0.771,0.771-1.242,1.157L72.114,39.031z M73.185,27.638V27.38
		c-0.042-1.285-0.171-2.484-0.385-3.555c-0.214-1.07-0.514-2.013-0.9-2.784C71.514,20.27,71,19.67,70.401,19.242
		c-0.6-0.428-1.285-0.643-2.1-0.643c-1.456,0-2.655,0.771-3.598,2.313s-1.456,3.812-1.542,6.768L73.185,27.638z M71.042,7.677h2.356
		l-4.796,6.639h-1.286L71.042,7.677z"/>
	<path fill="#FFFFFF" d="M89.893,34.876c0,1.713-0.515,3.084-1.543,4.069c-1.027,0.985-2.398,1.499-4.111,1.499
		c-0.9,0-1.671-0.128-2.356-0.428s-1.242-0.643-1.713-1.028c-0.471-0.385-0.856-0.813-1.156-1.242
		c-0.301-0.428-0.515-0.771-0.643-1.028l1.2-1.028c0.128,0.214,0.342,0.514,0.599,0.856c0.257,0.343,0.6,0.686,0.985,0.985
		c0.385,0.342,0.814,0.643,1.328,0.899c0.515,0.257,1.114,0.386,1.757,0.386c1.242,0,2.228-0.343,2.913-1.071
		c0.685-0.729,1.028-1.628,1.028-2.741c0-0.6-0.085-1.157-0.215-1.671c-0.128-0.514-0.342-1.027-0.642-1.499
		c-0.343-0.472-0.814-0.943-1.371-1.414c-0.557-0.471-1.286-0.986-2.143-1.542c-0.856-0.557-1.583-1.071-2.184-1.542
		c-0.599-0.471-1.113-0.985-1.5-1.499c-0.428-0.514-0.727-1.071-0.942-1.671c-0.214-0.599-0.299-1.285-0.299-2.056
		c0-1.499,0.471-2.741,1.371-3.726c0.899-0.986,2.185-1.457,3.855-1.457c0.856,0,1.584,0.128,2.227,0.385
		c0.643,0.257,1.199,0.557,1.671,0.899c0.428,0.343,0.771,0.686,1.028,1.071c0.256,0.386,0.471,0.686,0.599,0.899l-1.2,1.028
		c-0.17-0.214-0.386-0.471-0.642-0.771c-0.258-0.3-0.557-0.6-0.942-0.899c-0.385-0.3-0.814-0.557-1.286-0.729
		c-0.471-0.172-1.028-0.257-1.627-0.257c-1.071,0-1.928,0.343-2.527,0.986c-0.599,0.642-0.899,1.456-0.899,2.441
		c0,0.557,0.084,1.071,0.214,1.499c0.128,0.429,0.385,0.857,0.727,1.242c0.301,0.429,0.729,0.857,1.286,1.285
		c0.557,0.428,1.242,0.942,2.098,1.499c0.9,0.557,1.671,1.114,2.314,1.628c0.643,0.514,1.198,1.028,1.627,1.585
		c0.385,0.557,0.685,1.157,0.899,1.798c0.215,0.643,0.3,1.414,0.3,2.271L89.893,34.876z"/>
	<path fill="#FFFFFF" d="M104.243,39.031c-0.514,0.386-1.114,0.686-1.755,0.943c-0.644,0.256-1.372,0.385-2.186,0.385
		c-0.986,0-1.884-0.257-2.699-0.771c-0.814-0.514-1.542-1.286-2.142-2.27c-0.599-0.985-1.07-2.185-1.414-3.641
		c-0.342-1.457-0.513-3.127-0.513-5.011c0-1.842,0.171-3.47,0.513-4.927c0.343-1.456,0.814-2.698,1.414-3.684
		c0.6-0.984,1.328-1.756,2.185-2.313c0.857-0.556,1.799-0.813,2.827-0.813c1.072,0,2.015,0.257,2.828,0.813
		c0.813,0.557,1.499,1.329,2.056,2.313c0.558,0.985,0.985,2.185,1.242,3.599c0.258,1.413,0.386,2.998,0.386,4.711v0.813h-11.65
		v0.128c0.086,2.87,0.557,5.14,1.414,6.854c0.856,1.713,2.098,2.57,3.684,2.57c0.643,0,1.242-0.129,1.755-0.343
		c0.515-0.214,0.985-0.515,1.371-0.857c0.386-0.3,0.729-0.642,1.028-0.985c0.3-0.343,0.514-0.642,0.685-0.856l1.071,1.114
		c-0.215,0.299-0.472,0.642-0.813,1.027c-0.343,0.386-0.771,0.771-1.242,1.157L104.243,39.031z M105.314,27.638V27.38
		c-0.044-1.285-0.171-2.484-0.387-3.555c-0.214-1.07-0.514-2.013-0.898-2.784c-0.386-0.771-0.9-1.371-1.499-1.799
		c-0.6-0.428-1.286-0.643-2.099-0.643c-1.457,0-2.655,0.771-3.598,2.313c-0.942,1.542-1.457,3.812-1.541,6.768L105.314,27.638z"/>
	<path fill="#FFFFFF" d="M111.783,17.357h1.715v2.398c0.427-0.813,1.026-1.499,1.799-2.013c0.771-0.514,1.713-0.771,2.783-0.771
		c0.643,0,1.156,0.043,1.541,0.129c0.386,0.086,0.772,0.214,1.114,0.342l-0.471,1.799c-0.3-0.129-0.644-0.257-1.07-0.386
		c-0.43-0.129-0.857-0.171-1.286-0.171c-0.812,0-1.627,0.257-2.441,0.729c-0.813,0.471-1.456,1.371-1.927,2.656v17.818h-1.713
		L111.783,17.357z"/>
	<path fill="#FFFFFF" d="M123.179,17.4h1.757l5.054,20.603l5.097-20.603h1.713l-5.825,22.616h-2.013L123.179,17.4z"/>
	<path fill="#FFFFFF" d="M150.251,39.031c-0.514,0.386-1.114,0.686-1.756,0.943c-0.643,0.256-1.371,0.385-2.184,0.385
		c-0.986,0-1.885-0.257-2.699-0.771c-0.814-0.514-1.542-1.286-2.143-2.27c-0.6-0.985-1.07-2.185-1.413-3.641
		c-0.342-1.457-0.514-3.127-0.514-5.011c0-1.842,0.172-3.47,0.514-4.927c0.343-1.456,0.813-2.698,1.413-3.684
		c0.601-0.984,1.328-1.756,2.185-2.313c0.856-0.556,1.799-0.813,2.827-0.813c1.071,0,2.014,0.257,2.827,0.813
		c0.814,0.557,1.499,1.329,2.057,2.313c0.557,0.985,0.984,2.185,1.241,3.599c0.257,1.413,0.386,2.998,0.386,4.711v0.813h-11.65
		v0.128c0.086,2.87,0.558,5.14,1.414,6.854c0.856,1.713,2.099,2.57,3.683,2.57c0.644,0,1.242-0.129,1.756-0.343
		c0.515-0.214,0.986-0.515,1.372-0.857c0.385-0.3,0.728-0.642,1.027-0.985c0.3-0.343,0.514-0.642,0.686-0.856l1.07,1.114
		c-0.214,0.299-0.471,0.642-0.813,1.027c-0.343,0.386-0.771,0.771-1.242,1.157L150.251,39.031z M151.322,27.638V27.38
		c-0.043-1.285-0.172-2.484-0.387-3.555c-0.213-1.07-0.513-2.013-0.898-2.784s-0.9-1.371-1.499-1.799
		c-0.6-0.428-1.285-0.643-2.1-0.643c-1.457,0-2.655,0.771-3.598,2.313c-0.941,1.542-1.456,3.812-1.541,6.768L151.322,27.638z"/>
</g>
</svg>
