<?xml version="1.0" encoding="utf-8"?>
<!-- Generator: Adobe Illustrator 16.0.0, SVG Export Plug-In . SVG Version: 6.00 Build 0)  -->
<!DOCTYPE svg PUBLIC "-//W3C//DTD SVG 1.1//EN" "http://www.w3.org/Graphics/SVG/1.1/DTD/svg11.dtd">
<svg version="1.1" id="Calque_1" xmlns="http://www.w3.org/2000/svg" xmlns:xlink="http://www.w3.org/1999/xlink" x="0px" y="0px"
	 width="189.941px" height="50px" viewBox="0 0 189.941 50" enable-background="new 0 0 189.941 50" xml:space="preserve">
<g>
	<path fill="#7A1B2C" d="M10.328,7.345h2.067v33.324h11.243v1.966h-13.31V7.345z"/>
	<path fill="#7A1B2C" d="M37.703,42.08c-0.554,0.303-1.16,0.555-1.815,0.757s-1.311,0.302-2.017,0.302
		c-0.958,0-1.865-0.15-2.672-0.453s-1.513-0.807-2.117-1.512c-0.605-0.656-1.059-1.514-1.412-2.572
		c-0.353-1.059-0.504-2.369-0.504-3.932c0-2.975,0.706-5.143,2.067-6.504c1.361-1.361,3.126-2.017,5.243-2.017
		c1.16,0,2.218,0.151,3.176,0.454s1.765,0.705,2.42,1.159v-4.79c0-2.067-0.353-3.479-1.059-4.285
		c-0.706-0.807-1.815-1.21-3.277-1.21c-0.706,0-1.361,0.101-1.966,0.252c-0.605,0.151-1.16,0.353-1.664,0.605
		c-0.554,0.252-1.008,0.504-1.411,0.756s-0.706,0.454-0.958,0.605l-0.958-1.563c0.202-0.151,0.504-0.403,0.907-0.706
		s0.908-0.605,1.513-0.857s1.26-0.504,2.017-0.706s1.563-0.302,2.42-0.302c2.218,0,3.882,0.504,4.94,1.563
		c1.059,1.059,1.613,2.924,1.613,5.596v19.864h-2.017v-2.521c-0.252,0.303-0.604,0.654-1.008,1.008s-0.857,0.706-1.361,1.008H37.703
		z M29.284,34.619c0,2.27,0.454,3.982,1.361,5.092c0.908,1.109,2.168,1.664,3.832,1.664c1.16,0,2.218-0.354,3.176-1.059
		c0.958-0.706,1.765-1.513,2.42-2.369v-8.369c-0.756-0.504-1.563-0.908-2.47-1.211c-0.908-0.302-1.916-0.453-3.025-0.453
		c-1.664,0-2.975,0.555-3.933,1.664s-1.412,2.772-1.412,5.041H29.284z"/>
	<path fill="#7A1B2C" d="M58.676,16.117h2.017v2.823c0.504-0.958,1.21-1.764,2.118-2.369c0.907-0.605,2.017-0.908,3.277-0.908
		c0.756,0,1.361,0.05,1.815,0.151s0.907,0.252,1.311,0.403l-0.554,2.118c-0.353-0.151-0.756-0.303-1.26-0.454
		c-0.504-0.151-1.009-0.202-1.513-0.202c-0.958,0-1.916,0.303-2.874,0.857c-0.958,0.555-1.714,1.613-2.269,3.126v20.972h-2.017
		L58.676,16.117z"/>
	<path fill="#7A1B2C" d="M85.093,41.627c-0.604,0.453-1.311,0.807-2.067,1.109s-1.613,0.453-2.571,0.453
		c-1.16,0-2.219-0.303-3.176-0.907c-0.958-0.604-1.815-1.513-2.521-2.672c-0.706-1.159-1.26-2.571-1.664-4.285
		s-0.605-3.681-0.605-5.899c0-2.167,0.202-4.083,0.605-5.797c0.403-1.714,0.958-3.176,1.664-4.336
		c0.706-1.16,1.563-2.067,2.571-2.722c1.008-0.656,2.117-0.958,3.327-0.958c1.261,0,2.37,0.302,3.328,0.958
		c0.958,0.655,1.765,1.562,2.42,2.722s1.16,2.571,1.462,4.235c0.303,1.664,0.454,3.529,0.454,5.546v0.957H74.607v0.151
		c0.101,3.378,0.656,6.05,1.664,8.066s2.47,3.024,4.335,3.024c0.756,0,1.462-0.15,2.067-0.402c0.605-0.252,1.16-0.605,1.613-1.009
		c0.454-0.353,0.857-0.757,1.21-1.159c0.353-0.404,0.605-0.756,0.807-1.008l1.261,1.311c-0.252,0.353-0.555,0.756-0.958,1.209
		c-0.403,0.454-0.907,0.908-1.462,1.361L85.093,41.627z M86.354,28.217v-0.303c-0.051-1.512-0.202-2.924-0.454-4.185
		c-0.252-1.26-0.604-2.37-1.059-3.277c-0.454-0.907-1.059-1.613-1.765-2.117c-0.706-0.504-1.512-0.756-2.47-0.756
		c-1.714,0-3.125,0.907-4.235,2.722c-1.109,1.815-1.714,4.487-1.815,7.966L86.354,28.217z M83.833,4.723h2.773l-5.646,7.814h-1.513
		L83.833,4.723z"/>
	<path fill="#7A1B2C" d="M106.017,36.736c0,2.018-0.605,3.631-1.815,4.789c-1.21,1.16-2.823,1.766-4.84,1.766
		c-1.059,0-1.966-0.152-2.773-0.504c-0.807-0.354-1.462-0.757-2.017-1.211c-0.554-0.453-1.008-0.957-1.361-1.461
		c-0.353-0.505-0.605-0.908-0.756-1.211l1.412-1.209c0.151,0.252,0.403,0.604,0.706,1.008c0.303,0.402,0.706,0.807,1.16,1.159
		c0.454,0.403,0.958,0.757,1.563,1.06c0.605,0.302,1.311,0.453,2.067,0.453c1.462,0,2.622-0.403,3.428-1.26
		c0.807-0.857,1.21-1.916,1.21-3.227c0-0.707-0.101-1.361-0.252-1.967c-0.151-0.605-0.403-1.21-0.756-1.765
		c-0.403-0.555-0.958-1.108-1.613-1.663s-1.513-1.16-2.521-1.815c-1.009-0.655-1.866-1.261-2.571-1.815
		c-0.706-0.555-1.311-1.159-1.765-1.764c-0.504-0.605-0.857-1.261-1.109-1.967c-0.252-0.706-0.353-1.512-0.353-2.42
		c0-1.764,0.555-3.227,1.613-4.386c1.059-1.159,2.571-1.714,4.537-1.714c1.008,0,1.865,0.151,2.622,0.454
		c0.756,0.303,1.412,0.656,1.966,1.059c0.504,0.403,0.907,0.807,1.21,1.26s0.555,0.807,0.706,1.059l-1.412,1.21
		c-0.201-0.252-0.454-0.555-0.756-0.908c-0.303-0.353-0.655-0.706-1.109-1.059c-0.454-0.353-0.958-0.655-1.512-0.857
		c-0.555-0.202-1.21-0.302-1.916-0.302c-1.26,0-2.269,0.403-2.974,1.159c-0.706,0.756-1.059,1.714-1.059,2.874
		c0,0.655,0.101,1.26,0.252,1.764c0.151,0.504,0.454,1.008,0.857,1.462c0.353,0.504,0.857,1.008,1.512,1.512
		c0.655,0.504,1.462,1.109,2.471,1.765c1.059,0.655,1.966,1.311,2.722,1.915c0.756,0.605,1.412,1.211,1.916,1.865
		c0.454,0.656,0.807,1.361,1.059,2.118c0.252,0.757,0.353,1.663,0.353,2.672L106.017,36.736z"/>
	<path fill="#7A1B2C" d="M122.906,41.627c-0.604,0.453-1.311,0.807-2.067,1.109s-1.613,0.453-2.571,0.453
		c-1.16,0-2.219-0.303-3.176-0.907c-0.958-0.604-1.815-1.513-2.521-2.672c-0.706-1.159-1.26-2.571-1.664-4.285
		s-0.605-3.681-0.605-5.899c0-2.167,0.202-4.083,0.605-5.797c0.403-1.714,0.958-3.176,1.664-4.336
		c0.706-1.16,1.563-2.067,2.571-2.722c1.008-0.656,2.117-0.958,3.327-0.958c1.261,0,2.37,0.302,3.328,0.958
		c0.958,0.655,1.764,1.562,2.42,2.722c0.655,1.16,1.159,2.571,1.462,4.235c0.302,1.664,0.453,3.529,0.453,5.546v0.957h-13.713v0.151
		c0.101,3.378,0.656,6.05,1.664,8.066s2.47,3.024,4.335,3.024c0.756,0,1.462-0.15,2.067-0.402c0.605-0.252,1.16-0.605,1.613-1.009
		c0.454-0.353,0.857-0.757,1.21-1.159c0.354-0.404,0.605-0.756,0.807-1.008l1.261,1.311c-0.252,0.353-0.555,0.756-0.958,1.209
		c-0.403,0.454-0.907,0.908-1.462,1.361L122.906,41.627z M124.167,28.217v-0.303c-0.051-1.512-0.202-2.924-0.454-4.185
		s-0.604-2.37-1.059-3.277c-0.454-0.907-1.059-1.613-1.765-2.117c-0.706-0.504-1.512-0.756-2.47-0.756
		c-1.714,0-3.125,0.907-4.235,2.722c-1.109,1.815-1.714,4.487-1.815,7.966L124.167,28.217z"/>
	<path fill="#7A1B2C" d="M131.78,16.117h2.017v2.823c0.504-0.958,1.21-1.764,2.117-2.369s2.017-0.908,3.276-0.908
		c0.757,0,1.361,0.05,1.815,0.151s0.907,0.252,1.311,0.403l-0.555,2.118c-0.353-0.151-0.756-0.303-1.26-0.454
		c-0.505-0.151-1.009-0.202-1.513-0.202c-0.958,0-1.916,0.303-2.874,0.857c-0.958,0.555-1.714,1.613-2.269,3.126v20.972h-2.017
		L131.78,16.117z"/>
	<path fill="#7A1B2C" d="M145.191,16.167h2.066l5.949,24.25l5.999-24.25h2.017l-6.856,26.62h-2.369L145.191,16.167z"/>
	<path fill="#7A1B2C" d="M177.053,41.627c-0.605,0.453-1.311,0.807-2.067,1.109c-0.756,0.303-1.613,0.453-2.571,0.453
		c-1.159,0-2.218-0.303-3.176-0.907s-1.815-1.513-2.521-2.672c-0.706-1.159-1.261-2.571-1.664-4.285s-0.604-3.681-0.604-5.899
		c0-2.167,0.201-4.083,0.604-5.797c0.403-1.714,0.958-3.176,1.664-4.336c0.705-1.16,1.562-2.067,2.571-2.722
		c1.008-0.656,2.117-0.958,3.327-0.958c1.26,0,2.369,0.302,3.327,0.958c0.958,0.655,1.765,1.562,2.42,2.722s1.159,2.571,1.462,4.235
		c0.303,1.664,0.454,3.529,0.454,5.546v0.957h-13.713v0.151c0.101,3.378,0.655,6.05,1.663,8.066
		c1.009,2.017,2.471,3.024,4.336,3.024c0.757,0,1.462-0.15,2.067-0.402c0.604-0.252,1.159-0.605,1.613-1.009
		c0.453-0.353,0.856-0.757,1.21-1.159c0.353-0.404,0.604-0.756,0.807-1.008l1.26,1.311c-0.252,0.353-0.554,0.756-0.958,1.209
		c-0.402,0.454-0.907,0.908-1.462,1.361L177.053,41.627z M178.313,28.217v-0.303c-0.05-1.512-0.201-2.924-0.453-4.185
		s-0.605-2.37-1.059-3.277c-0.454-0.907-1.059-1.613-1.765-2.117c-0.706-0.504-1.513-0.756-2.471-0.756
		c-1.714,0-3.126,0.907-4.234,2.722c-1.109,1.815-1.715,4.487-1.815,7.966L178.313,28.217z"/>
</g>
</svg>
