<?xml version="1.0" encoding="utf-8"?>
<!-- Generator: Adobe Illustrator 16.0.0, SVG Export Plug-In . SVG Version: 6.00 Build 0)  -->
<!DOCTYPE svg PUBLIC "-//W3C//DTD SVG 1.1//EN" "http://www.w3.org/Graphics/SVG/1.1/DTD/svg11.dtd">
<svg version="1.1" id="Calque_1" xmlns="http://www.w3.org/2000/svg" xmlns:xlink="http://www.w3.org/1999/xlink" x="0px" y="0px"
	 width="2000px" height="1235px" viewBox="0 0 2000 1235" enable-background="new 0 0 2000 1235" xml:space="preserve">
<g>
	<g>
		<path fill="#7A1B2C" d="M999.195,972.708c-95.281,0-184.734-36.979-251.883-104.128S643.184,711.978,643.184,616.697
			c0-95.281,36.98-184.735,104.129-251.883c67.148-67.149,156.602-104.129,251.883-104.129c95.28,0,184.734,36.98,251.883,104.129
			c67.149,67.148,104.129,156.602,104.129,251.883c0,95.28-36.979,184.734-104.129,251.883
			C1183.93,935.729,1094.476,972.708,999.195,972.708z M999.195,302.661c-173.16,0-314.037,140.875-314.037,314.036
			c0,173.159,140.877,314.036,314.037,314.036s314.037-140.877,314.037-314.036C1313.232,443.537,1172.355,302.661,999.195,302.661z
			"/>
	</g>
	<path fill="#5E1625" d="M982.035,662.197c-11.572,0-20.987-9.415-20.987-20.987c0-1.189,0-15.488,0-16.342V466.345
		c0-11.573,9.415-20.988,20.987-20.988s20.987,9.415,20.987,20.988v153.878h137.536c11.573,0,20.988,9.414,20.988,20.987
		c0,11.572-9.415,20.987-20.988,20.987H982.035z"/>
</g>
</svg>
