<?xml version="1.0" encoding="utf-8"?>
<!-- Generator: Adobe Illustrator 16.0.0, SVG Export Plug-In . SVG Version: 6.00 Build 0)  -->
<!DOCTYPE svg PUBLIC "-//W3C//DTD SVG 1.1//EN" "http://www.w3.org/Graphics/SVG/1.1/DTD/svg11.dtd">
<svg version="1.1" id="Calque_1" xmlns="http://www.w3.org/2000/svg" xmlns:xlink="http://www.w3.org/1999/xlink" x="0px" y="0px"
	 width="101.81px" height="30px" viewBox="0 0 101.81 30" enable-background="new 0 0 101.81 30" xml:space="preserve">
<g>
	<path fill="#FFFFFF" d="M8.283,6.672h0.919v14.816h4.999v0.874H8.283V6.672z"/>
	<path fill="#FFFFFF" d="M20.455,22.116c-0.247,0.134-0.516,0.247-0.807,0.336c-0.292,0.089-0.583,0.134-0.896,0.134
		c-0.426,0-0.83-0.067-1.188-0.202c-0.359-0.135-0.672-0.359-0.941-0.672c-0.269-0.292-0.471-0.672-0.628-1.144
		c-0.157-0.471-0.224-1.053-0.224-1.748c0-1.323,0.314-2.287,0.919-2.892c0.605-0.605,1.39-0.896,2.332-0.896
		c0.516,0,0.986,0.067,1.412,0.202c0.426,0.134,0.784,0.314,1.076,0.516v-2.129c0-0.919-0.157-1.547-0.471-1.905
		c-0.313-0.359-0.807-0.538-1.457-0.538c-0.313,0-0.605,0.045-0.874,0.112c-0.269,0.067-0.516,0.157-0.74,0.269
		c-0.247,0.112-0.448,0.224-0.627,0.336c-0.18,0.112-0.314,0.202-0.426,0.269l-0.426-0.695c0.09-0.067,0.224-0.18,0.404-0.314
		c0.179-0.135,0.403-0.269,0.672-0.381c0.269-0.112,0.56-0.224,0.896-0.313c0.336-0.09,0.695-0.135,1.076-0.135
		c0.986,0,1.726,0.224,2.196,0.695s0.717,1.3,0.717,2.488v8.832h-0.896V21.22c-0.112,0.134-0.269,0.292-0.448,0.448
		s-0.381,0.314-0.605,0.448H20.455z M16.711,18.799c0,1.009,0.202,1.771,0.605,2.264c0.403,0.493,0.964,0.74,1.704,0.74
		c0.516,0,0.986-0.157,1.412-0.471c0.426-0.313,0.784-0.672,1.076-1.053v-3.721c-0.336-0.224-0.695-0.403-1.098-0.538
		c-0.403-0.135-0.852-0.202-1.345-0.202c-0.739,0-1.322,0.247-1.748,0.74s-0.628,1.233-0.628,2.242H16.711z"/>
	<path fill="#FFFFFF" d="M29.779,10.572h0.896v1.255c0.224-0.426,0.538-0.785,0.941-1.054c0.404-0.269,0.896-0.403,1.457-0.403
		c0.336,0,0.605,0.022,0.807,0.067s0.403,0.112,0.583,0.179l-0.247,0.941c-0.157-0.067-0.336-0.134-0.56-0.202
		s-0.448-0.09-0.673-0.09c-0.426,0-0.852,0.135-1.277,0.381s-0.762,0.717-1.009,1.39v9.325h-0.896L29.779,10.572z"/>
	<path fill="#FFFFFF" d="M41.524,21.915c-0.269,0.202-0.583,0.358-0.919,0.493c-0.336,0.134-0.717,0.202-1.143,0.202
		c-0.516,0-0.986-0.134-1.412-0.403s-0.807-0.673-1.121-1.188c-0.314-0.516-0.561-1.144-0.74-1.905
		c-0.179-0.762-0.269-1.637-0.269-2.623c0-0.964,0.09-1.816,0.269-2.578c0.179-0.762,0.426-1.412,0.74-1.928
		c0.313-0.515,0.695-0.919,1.143-1.21c0.448-0.291,0.941-0.426,1.479-0.426c0.56,0,1.053,0.135,1.479,0.426
		c0.426,0.292,0.785,0.695,1.076,1.21c0.292,0.516,0.516,1.144,0.65,1.883c0.135,0.739,0.202,1.569,0.202,2.465v0.426h-6.097v0.067
		c0.045,1.502,0.292,2.69,0.74,3.586s1.098,1.345,1.928,1.345c0.336,0,0.65-0.067,0.919-0.18c0.269-0.112,0.516-0.269,0.717-0.448
		c0.202-0.157,0.381-0.336,0.538-0.516c0.157-0.179,0.269-0.336,0.358-0.448l0.561,0.583c-0.112,0.157-0.247,0.336-0.426,0.538
		c-0.18,0.202-0.404,0.403-0.65,0.605L41.524,21.915z M42.084,15.952v-0.135c-0.022-0.672-0.09-1.3-0.202-1.86
		c-0.112-0.561-0.269-1.053-0.471-1.457c-0.202-0.403-0.471-0.717-0.785-0.941c-0.313-0.224-0.672-0.336-1.098-0.336
		c-0.762,0-1.39,0.403-1.883,1.21c-0.493,0.807-0.762,1.995-0.807,3.542L42.084,15.952z M40.964,5.507h1.233l-2.511,3.474h-0.672
		L40.964,5.507z"/>
	<path fill="#FFFFFF" d="M50.827,19.74c0,0.896-0.269,1.614-0.807,2.129s-1.255,0.785-2.152,0.785c-0.471,0-0.874-0.067-1.233-0.224
		c-0.358-0.157-0.65-0.336-0.896-0.538s-0.448-0.426-0.605-0.65c-0.157-0.224-0.269-0.404-0.336-0.538l0.627-0.538
		c0.067,0.112,0.179,0.269,0.314,0.448c0.134,0.18,0.313,0.359,0.516,0.516c0.202,0.179,0.426,0.336,0.695,0.471
		c0.269,0.135,0.583,0.202,0.919,0.202c0.65,0,1.166-0.179,1.524-0.56c0.358-0.381,0.538-0.852,0.538-1.435
		c0-0.314-0.045-0.605-0.112-0.875c-0.067-0.269-0.18-0.538-0.336-0.784c-0.179-0.247-0.426-0.493-0.717-0.74
		s-0.672-0.516-1.121-0.807s-0.83-0.561-1.143-0.807c-0.314-0.246-0.583-0.515-0.785-0.784c-0.224-0.269-0.381-0.561-0.493-0.875
		c-0.112-0.313-0.157-0.672-0.157-1.076c0-0.785,0.247-1.435,0.717-1.95s1.143-0.762,2.017-0.762c0.448,0,0.83,0.067,1.166,0.202
		c0.336,0.135,0.628,0.292,0.875,0.471c0.224,0.18,0.403,0.359,0.538,0.561c0.135,0.202,0.247,0.359,0.314,0.471l-0.627,0.538
		c-0.09-0.112-0.202-0.247-0.336-0.403c-0.134-0.157-0.292-0.314-0.493-0.471c-0.202-0.157-0.426-0.292-0.672-0.381
		c-0.247-0.089-0.538-0.134-0.852-0.134c-0.561,0-1.009,0.179-1.323,0.516c-0.314,0.336-0.471,0.762-0.471,1.277
		c0,0.292,0.045,0.561,0.112,0.785c0.067,0.224,0.202,0.448,0.381,0.65c0.157,0.224,0.381,0.448,0.672,0.672s0.65,0.493,1.099,0.785
		c0.471,0.292,0.874,0.583,1.21,0.852c0.336,0.269,0.627,0.538,0.852,0.829c0.202,0.292,0.358,0.605,0.471,0.941
		c0.112,0.336,0.157,0.74,0.157,1.188L50.827,19.74z"/>
	<path fill="#FFFFFF" d="M58.335,21.915c-0.269,0.202-0.583,0.358-0.919,0.493c-0.336,0.134-0.717,0.202-1.143,0.202
		c-0.516,0-0.986-0.134-1.412-0.403s-0.807-0.673-1.121-1.188c-0.314-0.516-0.561-1.144-0.74-1.905
		c-0.179-0.762-0.269-1.637-0.269-2.623c0-0.964,0.09-1.816,0.269-2.578c0.179-0.762,0.426-1.412,0.74-1.928
		c0.313-0.515,0.695-0.919,1.143-1.21c0.448-0.291,0.941-0.426,1.479-0.426c0.56,0,1.053,0.135,1.479,0.426
		c0.426,0.292,0.785,0.695,1.076,1.21c0.292,0.516,0.516,1.144,0.65,1.883c0.135,0.739,0.202,1.569,0.202,2.465v0.426h-6.097v0.067
		c0.045,1.502,0.292,2.69,0.74,3.586s1.098,1.345,1.928,1.345c0.336,0,0.65-0.067,0.919-0.18c0.269-0.112,0.516-0.269,0.717-0.448
		c0.202-0.157,0.381-0.336,0.538-0.516c0.157-0.179,0.269-0.336,0.358-0.448l0.561,0.583c-0.112,0.157-0.247,0.336-0.426,0.538
		c-0.18,0.202-0.404,0.403-0.65,0.605L58.335,21.915z M58.896,15.952v-0.135c-0.022-0.672-0.09-1.3-0.202-1.86
		c-0.112-0.561-0.269-1.053-0.471-1.457c-0.202-0.403-0.471-0.717-0.785-0.941c-0.313-0.224-0.672-0.336-1.098-0.336
		c-0.762,0-1.39,0.403-1.883,1.21c-0.493,0.807-0.762,1.995-0.807,3.542L58.896,15.952z"/>
	<path fill="#FFFFFF" d="M62.281,10.572h0.896v1.255c0.224-0.426,0.538-0.785,0.941-1.054c0.404-0.269,0.896-0.403,1.457-0.403
		c0.336,0,0.605,0.022,0.807,0.067s0.403,0.112,0.583,0.179l-0.247,0.941c-0.157-0.067-0.336-0.134-0.56-0.202
		s-0.448-0.09-0.673-0.09c-0.426,0-0.852,0.135-1.277,0.381s-0.762,0.717-1.009,1.39v9.325h-0.896L62.281,10.572z"/>
	<path fill="#FFFFFF" d="M68.243,10.595h0.919l2.645,10.782l2.667-10.782h0.896L72.323,22.43h-1.054L68.243,10.595z"/>
	<path fill="#FFFFFF" d="M82.41,21.915c-0.269,0.202-0.583,0.358-0.919,0.493c-0.336,0.134-0.717,0.202-1.143,0.202
		c-0.516,0-0.986-0.134-1.413-0.403c-0.426-0.269-0.807-0.673-1.12-1.188c-0.314-0.516-0.561-1.144-0.74-1.905
		c-0.179-0.762-0.269-1.637-0.269-2.623c0-0.964,0.09-1.816,0.269-2.578c0.18-0.762,0.426-1.412,0.74-1.928
		c0.313-0.515,0.694-0.919,1.143-1.21c0.448-0.291,0.941-0.426,1.479-0.426c0.561,0,1.054,0.135,1.479,0.426
		c0.426,0.292,0.785,0.695,1.076,1.21c0.291,0.516,0.516,1.144,0.65,1.883c0.134,0.739,0.201,1.569,0.201,2.465v0.426h-6.097v0.067
		c0.045,1.502,0.291,2.69,0.739,3.586s1.099,1.345,1.928,1.345c0.337,0,0.65-0.067,0.919-0.18c0.27-0.112,0.516-0.269,0.718-0.448
		c0.202-0.157,0.381-0.336,0.538-0.516c0.157-0.179,0.269-0.336,0.358-0.448l0.561,0.583c-0.112,0.157-0.247,0.336-0.426,0.538
		c-0.18,0.202-0.403,0.403-0.65,0.605L82.41,21.915z M82.97,15.952v-0.135c-0.022-0.672-0.09-1.3-0.202-1.86
		c-0.111-0.561-0.269-1.053-0.471-1.457c-0.201-0.403-0.471-0.717-0.784-0.941s-0.672-0.336-1.099-0.336
		c-0.762,0-1.39,0.403-1.883,1.21c-0.493,0.807-0.762,1.995-0.807,3.542L82.97,15.952z"/>
</g>
</svg>
